<?xml version="1.0" encoding="utf-8"?>
<!-- Generator: Adobe Illustrator 26.0.1, SVG Export Plug-In . SVG Version: 6.00 Build 0)  -->
<svg version="1.1" id="Capa_1" xmlns="http://www.w3.org/2000/svg" xmlns:xlink="http://www.w3.org/1999/xlink" x="0px" y="0px"
	 viewBox="0 0 150 150" style="enable-background:new 0 0 150 150;" xml:space="preserve">
<style type="text/css">
	.st0{fill:#DDC190;stroke:#DDC190;stroke-width:0.3332;stroke-miterlimit:10;}
	.st1{fill:#DDC190;stroke:#DDC190;stroke-width:0.272;stroke-miterlimit:10;}
</style>
<g>
	<path class="st0" d="M103.7,123.3c-19.2,0-38.3,0-57.5,0c-0.2-0.1-0.2-0.1-0.4-0.2c-2.1-0.7-3.4-2-4-4.1c0-0.1-0.1-0.2-0.2-0.3
		c0-17.7,0-35.3,0-52.9c0-0.1,0.1-0.2,0.1-0.2c0.8-2.9,2.8-4.4,5.8-4.4c0.6,0,1.2,0,1.8,0c0-0.5,0-0.9,0-1.3
		c0.2-1.9,1.6-3.2,3.6-3.1c1.7,0.1,3.1,1.5,3.1,3.3c0,0.3,0,0.7,0,1.1c1.5,0,3,0,4.4,0c0-0.6,0-1.2,0.1-1.7c0.3-1.7,1.8-2.7,3.7-2.7
		c1.6,0.2,2.8,1.5,2.9,3.2c0,0.4,0,0.8,0,1.2c1.6,0,3,0,4.4,0c0-0.4,0-0.7,0-1.1c0.1-1.7,1.4-3.2,3-3.2c1.8-0.1,3.3,1,3.7,2.8
		c0.1,0.5,0.1,1.1,0.2,1.6c1.5,0,2.9,0,4.3,0c0-0.4,0-0.8,0-1.2c0.2-1.9,1.6-3.2,3.6-3.1c1.7,0.1,3.1,1.5,3.1,3.3c0,0.3,0,0.7,0,1.1
		c1.5,0,3,0,4.4,0c0-0.6,0-1.2,0.1-1.7c0.3-1.7,1.8-2.7,3.7-2.7c1.6,0.2,2.8,1.5,2.9,3.2c0,0.4,0,0.8,0,1.2c0.8,0,1.6,0,2.2,0
		c3.1,0,5.5,2.5,5.5,5.5c0,17.1,0,34.1,0,51.2c0,1.7-0.7,3.2-2.2,4.3C105.4,122.7,104.6,122.9,103.7,123.3z M43.9,72.3
		c0,0.2,0,0.4,0,0.7c0,14.8,0,29.7,0,44.5c0,2.2,1.4,3.7,3.7,3.7c18.2,0,36.5,0,54.7,0c2.3,0,3.7-1.4,3.7-3.7c0-14.7,0-29.6,0-44.3
		c0-0.2,0-0.4,0-0.7C85.3,72.3,64.7,72.3,43.9,72.3z M43.9,69.9c20.7,0,41.4,0,62.1,0c0-1.2,0.1-2.2,0-3.3c-0.1-1.2-0.7-2.2-1.8-2.8
		c-1.2-0.6-2.4-0.3-3.7-0.3c0,0.5,0,0.9,0,1.3c-0.2,1.8-1.6,3.2-3.3,3.1c-1.8-0.1-3.2-1.5-3.2-3.3c0-0.3,0-0.7,0-1.1
		c-1.5,0-2.9,0-4.4,0c0,0.4,0,0.7,0,1.2c0,1.8-1.5,3.2-3.2,3.2c-1.7,0-3.2-1.3-3.3-3.1c0-0.4-0.1-0.9-0.1-1.4c-0.7,0-1.5,0-2.2,0
		c-0.7,0-1.4,0-2.2,0c0,0.4,0,0.7,0,1.1c-0.1,1.8-1.3,3.2-3.2,3.3c-1.7,0.2-3.2-1.1-3.6-2.9c-0.1-0.5-0.1-1-0.1-1.5
		c-1.5,0-2.9,0-4.4,0c0,0.5,0,0.8,0,1.2c-0.1,1.8-1.6,3.2-3.3,3.1c-1.8,0-3.2-1.5-3.2-3.3c0-0.3,0-0.7,0-1.1c-0.8,0-1.5,0-2.2,0
		s-1.4,0-2.2,0c0,0.4,0,0.7,0,1.1c0,1.8-1.4,3.3-3.2,3.3c-1.7,0.1-3.2-1.3-3.4-3.2c0-0.4,0-0.8,0-1.2c-0.9,0-1.7-0.1-2.6,0
		c-1.7,0.2-2.9,1.4-3,3.2C43.8,67.7,43.9,68.8,43.9,69.9z M51.7,62.3c0,0.7,0,1.5,0,2.2c0,0.7,0.4,1.1,1,1.2c0.6,0,1.2-0.4,1.2-1.1
		c0-1.5,0-3,0-4.5c0-0.7-0.6-1.1-1.2-1.1c-0.6,0-1,0.5-1,1.2C51.7,60.8,51.7,61.5,51.7,62.3z M65,62.3c0-0.7,0-1.4,0-2.2
		c0-0.7-0.5-1.2-1.1-1.2s-1.1,0.4-1.1,1.1c0,1.5,0,3,0,4.5c0,0.7,0.5,1.1,1.2,1.1c0.6,0,1-0.5,1-1.2C65,63.7,65,63,65,62.3z
		 M85,62.3c0,0.7,0,1.4,0,2.2c0,0.7,0.4,1.2,1,1.2c0.6,0,1.2-0.4,1.2-1.1c0-1.5,0-3,0-4.5c0-0.7-0.6-1.1-1.2-1.1c-0.6,0-1,0.5-1,1.2
		C85,60.8,85,61.5,85,62.3z M98.3,62.3c0-0.7,0-1.4,0-2.2c0-0.7-0.4-1.2-1.1-1.2c-0.6,0-1.1,0.4-1.1,1c0,1.5,0,3,0,4.6
		c0,0.7,0.5,1.1,1.1,1c0.6,0,1.1-0.5,1.1-1.2C98.3,63.8,98.3,63,98.3,62.3z M73.9,62.3c0,0.7,0,1.5,0,2.2c0,0.7,0.4,1.2,1.1,1.2
		s1.1-0.4,1.1-1.2c0-1.4,0-2.9,0-4.3c0-0.7-0.5-1.2-1.1-1.2c-0.6,0-1.1,0.5-1.1,1.2C73.9,60.8,73.9,61.5,73.9,62.3z"/>
	<path class="st1" d="M76.1,85.3c0.8-0.7,1.5-1.6,2.3-2.2c5.4-4.1,12.9-2,14.9,4.3c1.3,3.9,0.5,7.5-1.8,10.8
		c-1.8,2.5-3.9,4.6-6.3,6.6c-2.7,2.4-5.6,4.9-8.4,7.3c-0.6,0.5-1,0.5-1.5,0.1c-3.7-3.2-7.3-6.3-10.8-9.6c-2.1-1.9-4-4.1-5.2-6.7
		c-1.5-3.4-1.5-7,0.4-10.4c1.7-2.8,4.3-4.4,7.8-4.5c2.5-0.1,4.7,0.8,6.5,2.4C74.8,84,75.4,84.7,76.1,85.3z M76.2,110.5
		c3.7-3.4,7.3-6.6,10.9-9.9c1.5-1.4,2.7-3,3.7-4.7c1.8-3.4,1.8-6.7-0.3-9.9c-2.2-3.4-6.5-4.2-10.1-2.1c-1.5,0.9-2.6,2.1-3.4,3.6
		c-0.2,0.4-0.5,0.7-0.9,0.7c-0.5,0-0.8-0.3-1-0.7c-0.6-1.2-1.5-2.2-2.7-3.1c-3.6-2.8-8.5-2-10.9,1.8c-1.4,2.2-1.8,4.7-1.1,7.2
		c0.6,2.3,1.9,4.3,3.5,6C67.6,103.5,72,106.8,76.2,110.5z"/>
</g>
</svg>
